<?xml version="1.0" encoding="UTF-8"?>
<svg version="1.1" xmlns="http://www.w3.org/2000/svg" width="500" height="500">
<path d="M0 0 C7.53980889 -0.07685976 15.07951462 -0.12893515 22.61962891 -0.16479492 C25.17793554 -0.17976425 27.73621704 -0.20014693 30.29443359 -0.22631836 C54.50364835 -0.46755907 77.62990399 0.02204068 96 18 C110.78887668 34.26406316 111.96047962 54.12336837 111 75 C109.40688638 89.16263392 101.34872621 101.51746673 91 111 C80.88307892 118.93719811 69.358467 123.09065196 56.6796875 124.640625 C53.90511943 124.92755905 53.90511943 124.92755905 51 126 C49.36304663 126.06470093 47.72337526 126.0692338 46.08544922 126.03759766 C45.08786591 126.02072906 44.09028259 126.00386047 43.06246948 125.98648071 C41.98740143 125.9625827 40.91233337 125.93868469 39.8046875 125.9140625 C38.70150177 125.89282318 37.59831604 125.87158386 36.46170044 125.84970093 C34.12985028 125.8034348 31.79805165 125.7545062 29.46630859 125.703125 C25.88259663 125.62516526 22.29879542 125.55809247 18.71484375 125.4921875 C16.45311157 125.44596515 14.19139217 125.3991118 11.9296875 125.3515625 C10.31101273 125.32178818 10.31101273 125.32178818 8.65963745 125.29141235 C7.66835846 125.26823944 6.67707947 125.24506653 5.65576172 125.22119141 C4.77878632 125.20263092 3.90181091 125.18407043 2.9982605 125.16494751 C1 125 1 125 0 124 C-0.09600136 122.393108 -0.12187889 120.78198231 -0.12025452 119.17222595 C-0.12162918 118.12749619 -0.12300385 117.08276642 -0.12442017 116.00637817 C-0.12082489 114.85048187 -0.11722961 113.69458557 -0.11352539 112.50366211 C-0.11367142 111.29407333 -0.11381744 110.08448456 -0.1139679 108.83824158 C-0.11338893 105.51193649 -0.10835973 102.18569281 -0.10139394 98.8593986 C-0.09515978 95.38670071 -0.09455655 91.91400207 -0.09336853 88.44129944 C-0.0902554 81.86103807 -0.08204225 75.28079324 -0.07201904 68.70053917 C-0.06085734 61.21093888 -0.05534731 53.72133782 -0.05032361 46.2317313 C-0.03985962 30.82114461 -0.02226053 15.41057443 0 0 Z M28 25 C28 49.75 28 74.5 28 100 C50.86157703 101.79772726 50.86157703 101.79772726 69.76953125 94.02734375 C79.2783728 84.3003261 82.30268 74.37510131 82.31469727 61.06665039 C82.12794841 50.03299733 78.936824 40.8744521 71 33 C57.83575434 22.16570933 46.20792145 25 28 25 Z " fill="#31529B" transform="translate(49,180)"/>
<path d="M0 0 C1.29349365 0.00523682 2.5869873 0.01047363 3.91967773 0.01586914 C4.9496714 0.01799156 4.9496714 0.01799156 6.00047302 0.02015686 C8.20144949 0.0257706 10.40232557 0.03832532 12.60327148 0.05102539 C14.09220231 0.05603863 15.58113473 0.06060184 17.07006836 0.06469727 C20.72700223 0.07574446 24.38387707 0.09301826 28.04077148 0.11352539 C35.20477016 13.71973246 41.19887948 27.80151978 47.19372559 41.95306396 C48.24983914 44.44069038 49.31328506 46.92515466 50.37665462 49.40968609 C51.65348765 52.39621626 52.92299816 55.38585296 54.19311523 58.37524414 C54.66595444 59.48042892 55.13879364 60.58561371 55.6259613 61.72428894 C56.27783165 63.26793877 56.27783165 63.26793877 56.94287109 64.84277344 C57.51623451 66.19268623 57.51623451 66.19268623 58.10118103 67.56987 C59.02785404 70.07855533 59.59336301 72.48087582 60.04077148 75.11352539 C60.70077148 75.11352539 61.36077148 75.11352539 62.04077148 75.11352539 C62.29600586 74.27563477 62.55124023 73.43774414 62.81420898 72.57446289 C64.15232526 68.79875901 65.84202311 65.29448265 67.66577148 61.73852539 C68.38723332 60.31410075 69.10858439 58.88962001 69.82983398 57.46508789 C70.19753906 56.74224609 70.56524414 56.0194043 70.9440918 55.2746582 C72.65885025 51.89553047 74.3493259 48.50436548 76.04077148 45.11352539 C78.0222615 41.14522787 80.0064877 37.17844087 82.00561523 33.21899414 C82.66356178 31.91320324 83.32111306 30.60721311 83.97827148 29.30102539 C84.30134277 28.65891113 84.62441406 28.01679688 84.95727539 27.35522461 C88.11537675 21.03747 91.11434849 14.64534962 94.07177734 8.23144531 C94.43021729 7.46292236 94.78865723 6.69439941 95.15795898 5.90258789 C95.63144775 4.87705811 95.63144775 4.87705811 96.11450195 3.83081055 C97.04077148 2.11352539 97.04077148 2.11352539 99.04077148 0.11352539 C101.37915039 -0.11352539 101.37915039 -0.11352539 104.26733398 -0.08178711 C105.81420898 -0.07211914 105.81420898 -0.07211914 107.39233398 -0.06225586 C109.01268555 -0.03711914 109.01268555 -0.03711914 110.66577148 -0.01147461 C111.75374023 -0.00245117 112.84170898 0.00657227 113.96264648 0.01586914 C116.655573 0.0394913 119.34806404 0.07242983 122.04077148 0.11352539 C121.54519893 5.57845504 120.0368135 9.71949928 117.44311523 14.56665039 C116.70963886 15.98447312 115.97774459 17.40311527 115.24731445 18.82250977 C114.87676941 19.53785889 114.50622437 20.25320801 114.12445068 20.99023438 C112.4642766 24.24307222 110.9053539 27.54062079 109.35717773 30.84790039 C109.05488754 31.49178207 108.75259735 32.13566376 108.44114685 32.79905701 C107.81685809 34.13047879 107.1933494 35.46226659 106.57058716 36.79440308 C105.21303582 39.69825323 103.85087281 42.59993389 102.48912048 45.5018158 C101.77133263 47.03154484 101.05377421 48.56138155 100.33644104 50.09132385 C96.27503454 58.75226111 92.18971314 67.40187956 88.10327148 76.05102539 C87.38337584 77.57511095 86.66348643 79.09919945 85.94360352 80.62329102 C80.98340797 91.12355358 76.01597681 101.62036506 71.04077148 112.11352539 C64.77077148 112.11352539 58.50077148 112.11352539 52.04077148 112.11352539 C46.55147336 101.59526586 42.04172179 90.76925524 37.54077148 79.80102539 C36.80027504 78.00724498 36.05939171 76.21362422 35.31811523 74.42016602 C31.16018058 64.34300978 27.08980054 54.23609803 23.04077148 44.11352539 C22.71077148 70.51352539 22.38077148 96.91352539 22.04077148 124.11352539 C19.74189832 125.26296197 18.41986534 125.24251445 15.86499023 125.24633789 C15.03676758 125.24762695 14.20854492 125.24891602 13.35522461 125.25024414 C12.05488281 125.24444336 12.05488281 125.24444336 10.72827148 125.23852539 C9.87297852 125.24239258 9.01768555 125.24625977 8.13647461 125.25024414 C7.30438477 125.24895508 6.47229492 125.24766602 5.61499023 125.24633789 C4.85790771 125.24520996 4.1008252 125.24408203 3.32080078 125.24291992 C0.82101292 125.10105382 -1.51097362 124.62437543 -3.95922852 124.11352539 C-3.98255768 108.09359002 -4.00020778 92.07366013 -4.01104069 76.05371189 C-4.01620361 68.61588029 -4.02324623 61.17805922 -4.03466797 53.74023438 C-4.04461493 47.25971197 -4.05108197 40.7791972 -4.05331701 34.29866737 C-4.0546241 30.86521997 -4.05770982 27.43179439 -4.06495857 23.99835396 C-4.07297268 20.17158718 -4.07321965 16.34484204 -4.07275391 12.51806641 C-4.07634918 11.37152084 -4.07994446 10.22497528 -4.08364868 9.04368591 C-4.08227402 8.0073703 -4.08089935 6.97105469 -4.07948303 5.90333557 C-4.08040483 4.99721307 -4.08132662 4.09109056 -4.08227634 3.1575098 C-3.88423247 -0.1322564 -3.35452121 0.12869007 0 0 Z " fill="#305198" transform="translate(190.959228515625,179.886474609375)"/>
<path d="M0 0 C2.19310422 -0.01718468 4.38468961 -0.06104973 6.57739258 -0.10522461 C7.97256377 -0.11535393 9.3677478 -0.12386929 10.76293945 -0.13061523 C12.03435791 -0.14519775 13.30577637 -0.15978027 14.61572266 -0.17480469 C18.51413587 0.38310517 19.53408289 1.21971644 21.8996582 4.29516602 C23.28076172 6.31542969 23.28076172 6.31542969 24.52856445 8.46313477 C25.00068359 9.26541504 25.47280273 10.06769531 25.95922852 10.89428711 C26.45519531 11.74845215 26.95116211 12.60261719 27.4621582 13.48266602 C31.38669475 20.14325499 35.4024026 26.71053286 39.6496582 33.17016602 C43.03932139 38.36303531 46.37609373 43.57684143 49.5246582 48.92016602 C50.15629883 49.98493164 50.78793945 51.04969727 51.4387207 52.14672852 C53.63282246 56.8751938 54.21081562 60.56497222 53.28637695 65.70532227 C51.58218526 70.11701851 49.30743995 73.79643263 46.7121582 77.73266602 C45.62918168 79.40913909 44.54719932 81.08625469 43.46606445 82.76391602 C42.89001465 83.65336914 42.31396484 84.54282227 41.72045898 85.45922852 C38.47422285 90.51531311 35.32007927 95.62884821 32.1496582 100.73266602 C18.39289685 122.80192737 18.39289685 122.80192737 15.8996582 125.29516602 C5.48467156 127.36894654 -5.58919521 125.94067718 -16.1003418 125.29516602 C-15.56375155 120.6716099 -13.51846961 117.42593527 -10.97143555 113.65063477 C-10.5494841 113.01192444 -10.12753265 112.37321411 -9.6927948 111.71514893 C-8.78567854 110.34450765 -7.87487598 108.97630023 -6.96075439 107.61032104 C-5.52844819 105.46861994 -4.10784348 103.31955556 -2.68969727 101.16845703 C1.3826412 95.0040733 5.48292676 88.86188256 9.70207214 82.79679871 C10.8549964 81.13939869 12.00036757 79.47675256 13.14550781 77.81396484 C14.53408417 75.8044221 15.93917672 73.80616264 17.36279297 71.82128906 C20.90719913 66.70473787 20.90719913 66.70473787 22.1809082 60.72875977 C20.4113187 55.98647569 17.87934686 52.08070999 15.0246582 47.92016602 C13.83289364 46.13785347 12.64149328 44.35529735 11.45043945 42.57250977 C10.85183105 41.68547363 10.25322266 40.7984375 9.63647461 39.88452148 C7.10951698 36.11717363 4.66097348 32.30105982 2.2121582 28.48266602 C-0.47435787 24.30795368 -3.18390865 20.15329912 -5.97143555 16.04516602 C-6.43396729 15.36172119 -6.89649902 14.67827637 -7.37304688 13.97412109 C-8.24915281 12.68392501 -9.13020317 11.39706706 -10.01708984 10.11425781 C-13.7722327 4.58406906 -13.7722327 4.58406906 -14.1003418 1.29516602 C-11.43039158 -1.3747842 -3.83783415 0.02098113 0 0 Z " fill="#31529B" transform="translate(359.100341796875,179.704833984375)"/>
<path d="M0 0 C0.99 0.33 1.98 0.66 3 1 C3 29.38 3 57.76 3 87 C-5.25 87 -13.5 87 -22 87 C-22.09205457 79.33134314 -22.17163142 71.66461967 -22.21972656 63.99584961 C-22.23978535 61.38966357 -22.26703911 58.78352221 -22.30175781 56.17749023 C-22.3505263 52.42159974 -22.37302717 48.6663067 -22.390625 44.91015625 C-22.41127014 43.75354996 -22.43191528 42.59694366 -22.45318604 41.4052887 C-22.45512645 34.33749484 -21.4781251 29.17180898 -18 23 C-17.50757813 22.08089844 -17.01515625 21.16179687 -16.5078125 20.21484375 C-7.2773737 5.01330188 -7.2773737 5.01330188 0 0 Z " fill="#315199" transform="translate(313,217)"/>
<path d="M0 0 C3.23928411 1.50608782 4.2999102 4.31085137 5.8671875 7.359375 C8.38291137 12.01645555 10.98667025 16.36855209 14.1796875 20.609375 C17.60492053 25.17635237 20.50003712 29.88763033 23.3125 34.8515625 C24.60592536 37.09685934 25.92106964 39.29885712 27.296875 41.4921875 C27.66232422 42.07500488 28.02777344 42.65782227 28.40429688 43.25830078 C29.43795986 44.89833608 30.47665508 46.53519652 31.515625 48.171875 C32.86898723 50.54851111 33.66849473 52.31785799 34.1171875 54.984375 C29.73593919 57.17499916 23.86387406 56.25270302 18.99633789 56.27954102 C16.82308511 56.29672949 14.65136404 56.34061307 12.47851562 56.38476562 C11.091157 56.39489526 9.70378546 56.40341052 8.31640625 56.41015625 C7.05658936 56.42473877 5.79677246 56.43932129 4.4987793 56.4543457 C0.46156683 55.89325741 -1.03969949 54.8582843 -3.8828125 51.984375 C-5.61206055 49.65014648 -5.61206055 49.65014648 -7.14453125 47.10546875 C-7.70591797 46.18443359 -8.26730469 45.26339844 -8.84570312 44.31445312 C-9.41482422 43.35990234 -9.98394531 42.40535156 -10.5703125 41.421875 C-11.719883 39.52463712 -12.8696155 37.62749739 -14.01953125 35.73046875 C-14.52186279 34.89185303 -15.02419434 34.0532373 -15.54174805 33.18920898 C-16.61310042 31.4278066 -17.73922378 29.69975808 -18.8828125 27.984375 C-18.8828125 22.30960386 -16.99388823 19.32632446 -13.56640625 15.1015625 C-11.80923466 12.89184787 -10.28635629 10.60692389 -8.7578125 8.234375 C-3.26919999 -0.02713029 -3.26919999 -0.02713029 0 0 Z " fill="#56C1A1" transform="translate(426.8828125,250.015625)"/>
<path d="M0 0 C1.29679687 -0.01224609 2.59359375 -0.02449219 3.9296875 -0.03710938 C5.16976562 -0.03904297 6.40984375 -0.04097656 7.6875 -0.04296875 C9.39486328 -0.04913208 9.39486328 -0.04913208 11.13671875 -0.05541992 C14 0.1875 14 0.1875 17 2.1875 C17.7759545 5.77076955 17.04118317 7.12345563 15.05078125 10.21875 C14.14687356 11.38193379 13.23339195 12.53771583 12.3125 13.6875 C6.85637175 20.78173098 2.13515341 28.21155989 -2.49487305 35.86523438 C-5.48441871 40.79524738 -8.58050363 45.54405106 -12 50.1875 C-15.37209547 49.89710865 -16.76621375 49.41152821 -19.24609375 47.03515625 C-31.8005794 31.07909873 -31.8005794 31.07909873 -32.25 24.5625 C-30.90000894 20.91752414 -29.25664544 18.50513498 -26.8203125 15.515625 C-23.87282782 11.74588064 -21.39415799 7.66665628 -18.83203125 3.62890625 C-14.70927368 -1.86517366 -6.24497623 0.00310386 0 0 Z " fill="#58C1A3" transform="translate(440,178.8125)"/>
<path d="M0 0 C7.53980889 -0.07685976 15.07951462 -0.12893515 22.61962891 -0.16479492 C25.17793554 -0.17976425 27.73621704 -0.20014693 30.29443359 -0.22631836 C54.50364835 -0.46755907 77.62990399 0.02204068 96 18 C110.78887668 34.26406316 111.96047962 54.12336837 111 75 C109.40688638 89.16263392 101.34872621 101.51746673 91 111 C80.88307892 118.93719811 69.358467 123.09065196 56.6796875 124.640625 C53.90511943 124.92755905 53.90511943 124.92755905 51 126 C49.36304663 126.06470093 47.72337526 126.0692338 46.08544922 126.03759766 C45.08786591 126.02072906 44.09028259 126.00386047 43.06246948 125.98648071 C41.98740143 125.9625827 40.91233337 125.93868469 39.8046875 125.9140625 C38.70150177 125.89282318 37.59831604 125.87158386 36.46170044 125.84970093 C34.12985028 125.8034348 31.79805165 125.7545062 29.46630859 125.703125 C25.88259663 125.62516526 22.29879542 125.55809247 18.71484375 125.4921875 C16.45311157 125.44596515 14.19139217 125.3991118 11.9296875 125.3515625 C10.31101273 125.32178818 10.31101273 125.32178818 8.65963745 125.29141235 C7.66835846 125.26823944 6.67707947 125.24506653 5.65576172 125.22119141 C4.77878632 125.20263092 3.90181091 125.18407043 2.9982605 125.16494751 C1 125 1 125 0 124 C-0.09600136 122.393108 -0.12187889 120.78198231 -0.12025452 119.17222595 C-0.12162918 118.12749619 -0.12300385 117.08276642 -0.12442017 116.00637817 C-0.12082489 114.85048187 -0.11722961 113.69458557 -0.11352539 112.50366211 C-0.11367142 111.29407333 -0.11381744 110.08448456 -0.1139679 108.83824158 C-0.11338893 105.51193649 -0.10835973 102.18569281 -0.10139394 98.8593986 C-0.09515978 95.38670071 -0.09455655 91.91400207 -0.09336853 88.44129944 C-0.0902554 81.86103807 -0.08204225 75.28079324 -0.07201904 68.70053917 C-0.06085734 61.21093888 -0.05534731 53.72133782 -0.05032361 46.2317313 C-0.03985962 30.82114461 -0.02226053 15.41057443 0 0 Z M2 2 C1.03186607 48.2723292 1.03186607 48.2723292 1.1411438 94.55163574 C1.17200002 96.80537877 1.19617061 99.05922344 1.21359253 101.31311035 C1.2405256 104.42690962 1.29359135 107.53906857 1.35546875 110.65234375 C1.35987976 111.56485397 1.36429077 112.4773642 1.36883545 113.41752625 C1.43390735 118.07610077 1.43390735 118.07610077 3.56713867 122.06152344 C6.91254946 123.35201607 10.0376183 123.40882312 13.5703125 123.36328125 C14.31594955 123.36473145 15.06158661 123.36618164 15.82981873 123.36767578 C18.26195852 123.3664177 20.6930394 123.34122125 23.125 123.3125 C23.95313202 123.3065683 24.78126404 123.3006366 25.63449097 123.29452515 C36.28638592 123.21690751 46.93062637 122.99721881 57.5625 122.3125 C58.55717285 122.25940674 59.5518457 122.20631348 60.57666016 122.15161133 C74.65745919 121.0416114 86.55609115 113.90446723 96.25 103.875 C108.21878757 89.57143868 111.40273991 72.12177326 110 54 C108.85706157 45.13115215 106.39852014 37.74295705 102 30 C101.58492188 29.16082031 101.16984375 28.32164062 100.7421875 27.45703125 C98.46529371 22.67654833 98.46529371 22.67654833 94.3125 19.6875 C93.549375 19.460625 92.78625 19.23375 92 19 C91.71125 18.401875 91.4225 17.80375 91.125 17.1875 C87.42006125 9.98345242 76.40706128 6.48746001 69.19921875 4.0546875 C57.49697819 0.64498233 45.73664789 0.84112559 33.65014648 0.86962891 C30.94053571 0.87499399 28.23109015 0.86965622 25.52148438 0.86328125 C23.77343714 0.86394203 22.02539001 0.86522318 20.27734375 0.8671875 C19.48021469 0.86516327 18.68308563 0.86313904 17.86180115 0.86105347 C12.50622701 0.88303838 7.31482548 1.33337121 2 2 Z " fill="#2A3F79" transform="translate(49,180)"/>
<path d="M0 0 C1.29349365 0.00523682 2.5869873 0.01047363 3.91967773 0.01586914 C4.9496714 0.01799156 4.9496714 0.01799156 6.00047302 0.02015686 C8.20144949 0.0257706 10.40232557 0.03832532 12.60327148 0.05102539 C14.09220231 0.05603863 15.58113473 0.06060184 17.07006836 0.06469727 C20.72700223 0.07574446 24.38387707 0.09301826 28.04077148 0.11352539 C28.90723816 1.54364512 29.75858978 2.98293158 30.60327148 4.42602539 C31.07893555 5.2265332 31.55459961 6.02704102 32.04467773 6.85180664 C33.04077148 9.11352539 33.04077148 9.11352539 32.04077148 12.11352539 C30.10327148 11.42602539 30.10327148 11.42602539 28.04077148 10.11352539 C27.91702148 9.30915039 27.79327148 8.50477539 27.66577148 7.67602539 C27.45952148 6.83040039 27.25327148 5.98477539 27.04077148 5.11352539 C18.87923911 0.47374221 18.87923911 0.47374221 -0.95922852 2.11352539 C-1.28922852 42.04352539 -1.61922852 81.97352539 -1.95922852 123.11352539 C5.30077148 123.11352539 12.56077148 123.11352539 20.04077148 123.11352539 C20.04077148 95.72352539 20.04077148 68.33352539 20.04077148 40.11352539 C21.36077148 40.11352539 22.68077148 40.11352539 24.04077148 40.11352539 C26.16577148 44.73852539 26.16577148 44.73852539 25.04077148 48.11352539 C24.38077148 46.79352539 23.72077148 45.47352539 23.04077148 44.11352539 C22.71077148 70.51352539 22.38077148 96.91352539 22.04077148 124.11352539 C19.74189832 125.26296197 18.41986534 125.24251445 15.86499023 125.24633789 C15.03676758 125.24762695 14.20854492 125.24891602 13.35522461 125.25024414 C12.05488281 125.24444336 12.05488281 125.24444336 10.72827148 125.23852539 C9.87297852 125.24239258 9.01768555 125.24625977 8.13647461 125.25024414 C7.30438477 125.24895508 6.47229492 125.24766602 5.61499023 125.24633789 C4.85790771 125.24520996 4.1008252 125.24408203 3.32080078 125.24291992 C0.82101292 125.10105382 -1.51097362 124.62437543 -3.95922852 124.11352539 C-3.98255768 108.09359002 -4.00020778 92.07366013 -4.01104069 76.05371189 C-4.01620361 68.61588029 -4.02324623 61.17805922 -4.03466797 53.74023438 C-4.04461493 47.25971197 -4.05108197 40.7791972 -4.05331701 34.29866737 C-4.0546241 30.86521997 -4.05770982 27.43179439 -4.06495857 23.99835396 C-4.07297268 20.17158718 -4.07321965 16.34484204 -4.07275391 12.51806641 C-4.07634918 11.37152084 -4.07994446 10.22497528 -4.08364868 9.04368591 C-4.08227402 8.0073703 -4.08089935 6.97105469 -4.07948303 5.90333557 C-4.08040483 4.99721307 -4.08132662 4.09109056 -4.08227634 3.1575098 C-3.88423247 -0.1322564 -3.35452121 0.12869007 0 0 Z " fill="#1D2D61" transform="translate(190.959228515625,179.886474609375)"/>
<path d="M0 0 C15.97307962 0.01730561 27.61805681 0.04304742 39.84228516 11.25341797 C42.27704401 14.11425963 43.12527108 15.50167865 43.34228516 19.19091797 C41.04365702 16.97742421 39.09438931 14.84823842 37.21728516 12.25341797 C33.06161534 7.15268928 26.56205529 4.7458605 20.34228516 3.19091797 C11.43228516 2.86091797 2.52228516 2.53091797 -6.65771484 2.19091797 C-6.65771484 26.94091797 -6.65771484 51.69091797 -6.65771484 77.19091797 C16.39667391 78.3632075 16.39667391 78.3632075 36.65478516 68.62841797 C42.21716901 62.61654855 45.03502736 54.9516942 47.34228516 47.19091797 C47.67228516 47.19091797 48.00228516 47.19091797 48.34228516 47.19091797 C47.63369851 55.33966438 45.02536137 63.1526495 39.34228516 69.19091797 C38.64103516 69.95404297 37.93978516 70.71716797 37.21728516 71.50341797 C35.34228516 73.19091797 35.34228516 73.19091797 33.34228516 73.19091797 C33.34228516 73.85091797 33.34228516 74.51091797 33.34228516 75.19091797 C23.57522259 83.27400423 6.23781864 80.466335 -5.39208984 79.50732422 C-7.65771484 79.19091797 -7.65771484 79.19091797 -8.65771484 78.19091797 C-8.7579928 75.79282648 -8.79390161 73.42352298 -8.78710938 71.02490234 C-8.78886169 70.27533768 -8.79061401 69.52577301 -8.79241943 68.75349426 C-8.79683804 66.26386228 -8.79389994 63.77430074 -8.79052734 61.28466797 C-8.79120038 59.56213365 -8.7921704 57.83959942 -8.79342651 56.11706543 C-8.7949035 52.50218809 -8.79274891 48.88733542 -8.78808594 45.27246094 C-8.78238865 40.62825304 -8.78566765 35.98410293 -8.7916584 31.33989716 C-8.795264 27.78155071 -8.79412544 24.22321807 -8.79153061 20.66487122 C-8.79086134 18.95197035 -8.79168977 17.23906825 -8.79401016 15.52616882 C-8.79653667 13.13638975 -8.79269614 10.74670556 -8.78710938 8.35693359 C-8.78913361 7.64209305 -8.79115784 6.9272525 -8.79324341 6.19075012 C-8.76177992 -1.03759258 -6.55033452 0.05094584 0 0 Z " fill="#274184" transform="translate(83.65771484375,202.80908203125)"/>
<path d="M0 0 C0.99 0.33 1.98 0.66 3 1 C3 29.38 3 57.76 3 87 C-5.25 87 -13.5 87 -22 87 C-22.06895434 79.29499133 -22.12866611 71.59105795 -22.16479492 63.88598633 C-22.17985979 61.26615771 -22.20031554 58.64635422 -22.22631836 56.02661133 C-22.26280162 52.25595895 -22.27974988 48.48564074 -22.29296875 44.71484375 C-22.30845261 43.54791489 -22.32393646 42.38098602 -22.33988953 41.17869568 C-22.3411632 34.99217732 -21.99162867 30.46222397 -19 25 C-18.67 25.66 -18.34 26.32 -18 27 C-18.30083496 27.78004395 -18.60166992 28.56008789 -18.91162109 29.36376953 C-20.48503024 34.62046667 -20.35816231 39.71925714 -20.4140625 45.1796875 C-20.43342865 46.3475882 -20.4527948 47.51548889 -20.4727478 48.71878052 C-20.53237661 52.43744678 -20.57886274 56.15614428 -20.625 59.875 C-20.66319509 62.40105493 -20.70224771 64.92709705 -20.7421875 67.453125 C-20.83806468 73.63531224 -20.92215784 79.81756044 -21 86 C-13.74 86 -6.48 86 1 86 C0.67 58.61 0.34 31.22 0 3 C-1.65 4.32 -3.3 5.64 -5 7 C-5.33 6.34 -5.66 5.68 -6 5 C-1.60546875 0.99609375 -1.60546875 0.99609375 0 0 Z " fill="#1F346D" transform="translate(313,217)"/>
<path d="M0 0 C8.60969323 7.0903356 12.94215086 19.13500779 14 30 C15.26196131 50.96132765 13.45979052 68.36091913 -0.75 84.875 C-9.1536151 93.5954935 -22.74273871 102.55711307 -35.26171875 103.09765625 C-36.46248047 103.08025391 -36.46248047 103.08025391 -37.6875 103.0625 C-38.49574219 103.05347656 -39.30398437 103.04445313 -40.13671875 103.03515625 C-40.75160156 103.02355469 -41.36648437 103.01195312 -42 103 C-39.25674333 100.25674333 -37.0672482 100.40251035 -33.25 99.8125 C-19.45959241 97.32272732 -7.74111221 90.55196 0.9921875 79.47265625 C11.37815735 64.29487628 13.75734153 46.94803356 11.50390625 29.0625 C10.07849768 21.71802196 7.75219548 15.45699898 4 9 C3.60039062 8.30777344 3.20078125 7.61554688 2.7890625 6.90234375 C2.42554688 6.27457031 2.06203125 5.64679688 1.6875 5 C0 2 0 2 0 0 Z " fill="#1D2E64" transform="translate(146,201)"/>
<path d="M0 0 C8.745 -0.061875 17.49 -0.12375 26.5 -0.1875 C29.22572266 -0.21481201 31.95144531 -0.24212402 34.75976562 -0.27026367 C58.06487093 -0.4067157 78.15271506 1.67457657 96 18 C96.495 19.485 96.495 19.485 97 21 C93.88043825 20.01956631 92.1147018 19.117979 89.8125 16.75 C83.81766635 10.88838487 76.89337799 7.70802762 69 5.1875 C68.36022217 4.98060547 67.72044434 4.77371094 67.0612793 4.56054688 C56.20504812 1.30819468 44.86757368 1.84317511 33.65014648 1.86962891 C30.94053571 1.87499399 28.23109015 1.86965622 25.52148438 1.86328125 C23.77343714 1.86394203 22.02539001 1.86522318 20.27734375 1.8671875 C19.48021469 1.86516327 18.68308563 1.86313904 17.86180115 1.86105347 C17.09392776 1.86420563 16.32605438 1.86735779 15.53491211 1.87060547 C14.87446396 1.87140106 14.21401581 1.87219666 13.53355408 1.87301636 C9.67556884 2.06638149 5.83920192 2.57342201 2 3 C1.67 20.49 1.34 37.98 1 56 C0.67 56 0.34 56 0 56 C0 37.52 0 19.04 0 0 Z " fill="#26386D" transform="translate(49,180)"/>
<path d="M0 0 C0.495 0.99 0.495 0.99 1 2 C-0.06396484 4.04711914 -0.06396484 4.04711914 -1.7109375 6.53515625 C-2.29617188 7.42654297 -2.88140625 8.31792969 -3.484375 9.23632812 C-4.10828125 10.16896484 -4.7321875 11.10160156 -5.375 12.0625 C-5.99117188 12.99900391 -6.60734375 13.93550781 -7.2421875 14.90039062 C-11.79595882 21.79595882 -11.79595882 21.79595882 -13 23 C-23.41498664 25.07378053 -34.48885342 23.64551116 -45 23 C-44.52709977 17.81822083 -41.82277967 14.33484148 -38.9375 10.1875 C-38.46505859 9.49462891 -37.99261719 8.80175781 -37.50585938 8.08789062 C-36.3445174 6.3869352 -35.1732322 4.69277605 -34 3 C-33.34 4.32 -32.68 5.64 -32 7 C-33.32 7.33 -34.64 7.66 -36 8 C-36.33730842 9.43657245 -36.66969591 10.87430093 -37 12.3125 C-37.185625 13.11300781 -37.37125 13.91351563 -37.5625 14.73828125 C-38.09495823 17.10695938 -38.09495823 17.10695938 -38 20 C-30.58750653 20.11462619 -23.35675583 19.93140578 -16 19 C-14.515 18.87625 -14.515 18.87625 -13 18.75 C-10.79761383 18.18619661 -10.79761383 18.18619661 -10 15.9375 C-9.67 14.968125 -9.34 13.99875 -9 13 C-7.7614329 10.91677074 -6.44985122 8.89383835 -5.12109375 6.8671875 C-3.84348324 4.89250091 -3.84348324 4.89250091 -3 2 C-2.01 1.34 -1.02 0.68 0 0 Z " fill="#25386E" transform="translate(388,282)"/>
<path d="M0 0 C35.4370155 0 35.4370155 0 47.5 11.0625 C49.93475886 13.92334166 50.78298592 15.31076068 51 19 C48.70137187 16.78650624 46.75210415 14.65732045 44.875 12.0625 C40.71933018 6.96177131 34.21977013 4.55494253 28 3 C19.09 2.67 10.18 2.34 1 2 C1 26.75 1 51.5 1 77 C0.67 77 0.34 77 0 77 C0 51.59 0 26.18 0 0 Z " fill="#233566" transform="translate(76,203)"/>
<path d="M0 0 C4.34157052 -0.09905303 8.68253854 -0.17155301 13.02490234 -0.21972656 C14.5012559 -0.23981301 15.97753019 -0.26708801 17.45361328 -0.30175781 C19.57864962 -0.35041184 21.70263234 -0.37299673 23.828125 -0.390625 C25.1059082 -0.41157227 26.38369141 -0.43251953 27.70019531 -0.45410156 C31.56247401 0.07740468 32.64102959 0.97907901 35 4 C36.59966573 6.27700166 37.74565785 8.49131571 39 11 C38.67 11.66 38.34 12.32 38 13 C36 11.625 36 11.625 34 10 C34 9.34 34 8.68 34 8 C33.01 7.67 32.02 7.34 31 7 C31 5.33333333 31 3.66666667 31 2 C27.95809137 1.94578777 24.91716001 1.90622452 21.875 1.875 C21.0190625 1.85824219 20.163125 1.84148437 19.28125 1.82421875 C14.43412707 1.78693319 10.55292095 2.10419357 6 4 C6.26656572 6.93443402 6.26656572 6.93443402 7 10 C7.99 10.66 8.98 11.32 10 12 C10.703125 13.8125 10.703125 13.8125 11.25 16 C12.75622727 21.05895898 15.44693607 24.70644253 18.671875 28.8359375 C19.11015625 29.55007812 19.5484375 30.26421875 20 31 C19.67 31.99 19.34 32.98 19 34 C16.7923431 30.56923367 14.58703585 27.13696942 12.38378906 23.70336914 C11.63571781 22.538253 10.88703286 21.37353064 10.13769531 20.20922852 C1.11179704 6.18298261 1.11179704 6.18298261 -1 2 C-0.67 1.34 -0.34 0.68 0 0 Z " fill="#2A4079" transform="translate(346,180)"/>
<path d="M0 0 C1.32 0 2.64 0 4 0 C2.03754421 4.19803686 -0.51528691 7.98182145 -3.04589844 11.85424805 C-5.4610799 15.56761326 -7.80445494 19.31210323 -10.0859375 23.109375 C-10.61074707 23.97167725 -11.13555664 24.83397949 -11.67626953 25.72241211 C-12.71329141 27.42917058 -13.73806086 29.14344309 -14.74951172 30.86547852 C-15.2292041 31.64850342 -15.70889648 32.43152832 -16.203125 33.23828125 C-16.62239258 33.93993408 -17.04166016 34.64158691 -17.47363281 35.36450195 C-19.5242913 37.56177662 -21.0391976 37.82229907 -24 38 C-26.23828125 36.12890625 -26.23828125 36.12890625 -28.3125 33.5625 C-29.00988281 32.71816406 -29.70726562 31.87382812 -30.42578125 31.00390625 C-30.94527344 30.34261719 -31.46476562 29.68132812 -32 29 C-30.68 28.67 -29.36 28.34 -28 28 C-27.4121875 29.4540625 -27.4121875 29.4540625 -26.8125 30.9375 C-25.32405113 34.22176391 -25.32405113 34.22176391 -22.3125 34.875 C-21.549375 34.91625 -20.78625 34.9575 -20 35 C-19.5978125 33.576875 -19.5978125 33.576875 -19.1875 32.125 C-18 29 -18 29 -15 27 C-14.42006301 24.80545319 -14.42006301 24.80545319 -14.3125 22.375 C-14.24675781 21.55773437 -14.18101562 20.74046875 -14.11328125 19.8984375 C-14.07589844 19.27195313 -14.03851563 18.64546875 -14 18 C-12.02 17.67 -10.04 17.34 -8 17 C-8.103125 15.783125 -8.20625 14.56625 -8.3125 13.3125 C-8.33215866 9.62322503 -8.07841519 9.09905077 -5.625 6 C-3 4 -3 4 -1 4 C-0.67 2.68 -0.34 1.36 0 0 Z " fill="#51AC93" transform="translate(448,191)"/>
<path d="M0 0 C1.29679687 -0.01224609 2.59359375 -0.02449219 3.9296875 -0.03710938 C5.16976562 -0.03904297 6.40984375 -0.04097656 7.6875 -0.04296875 C9.39486328 -0.04913208 9.39486328 -0.04913208 11.13671875 -0.05541992 C14 0.1875 14 0.1875 17 2.1875 C16.67 3.5075 16.34 4.8275 16 6.1875 C15.505 4.7025 15.505 4.7025 15 3.1875 C4.77 2.8575 -5.46 2.5275 -16 2.1875 C-16.66 3.8375 -17.32 5.4875 -18 7.1875 C-18.61875 7.909375 -19.2375 8.63125 -19.875 9.375 C-22.83585521 13.29377895 -24.32538203 17.60011568 -26 22.1875 C-26.99 22.1875 -27.98 22.1875 -29 22.1875 C-29 25.1575 -29 28.1275 -29 31.1875 C-28.01 31.5175 -27.02 31.8475 -26 32.1875 C-26.33 33.5075 -26.66 34.8275 -27 36.1875 C-29.8424296 32.40087233 -31.92952727 29.50299099 -32.1875 24.6875 C-30.90472851 20.90669982 -29.31615037 18.57815069 -26.8203125 15.515625 C-23.87282782 11.74588064 -21.39415799 7.66665628 -18.83203125 3.62890625 C-14.70927368 -1.86517366 -6.24497623 0.00310386 0 0 Z " fill="#539480" transform="translate(440,178.8125)"/>
<path d="M0 0 C4.41839805 3.77514678 6.93506588 8.66601779 9.8125 13.625 C13.017129 19.07622315 16.18560461 24.46355847 19.9375 29.5625 C24.13307037 35.35197577 28 41.73940911 28 49 C27.34 49 26.68 49 26 49 C25.77957031 48.09121094 25.77957031 48.09121094 25.5546875 47.1640625 C23.20697383 38.39386775 19.44290987 31.40322048 13 25 C11.96567096 23.01753602 10.96761608 21.01586684 10 19 C7.82310608 15.46254738 6.47112069 13.31408046 3 11 C3 10.34 3 9.68 3 9 C2.34 8.67 1.68 8.34 1 8 C0.40644386 5.35139573 0.25790731 2.70802678 0 0 Z " fill="#1F3165" transform="translate(385,193)"/>
<path d="M0 0 C5.51350585 -0.02490465 11.02697822 -0.04295608 16.54052734 -0.05493164 C18.41227795 -0.05992942 20.28402471 -0.06672988 22.15576172 -0.07543945 C24.86166335 -0.08770621 27.56751292 -0.093274 30.2734375 -0.09765625 C31.09677582 -0.10281754 31.92011414 -0.10797882 32.7684021 -0.11329651 C38.56511673 -0.11384375 44.24346122 0.32839588 50 1 C50 1.33 50 1.66 50 2 C36.32060126 2.73091572 22.69890638 3.14236739 9 3 C9 2.34 9 1.68 9 1 C6.36 1.33 3.72 1.66 1 2 C0.67 1.34 0.34 0.68 0 0 Z " fill="#294890" transform="translate(60,181)"/>
<path d="M0 0 C3 1 3 1 4.25 3.375 C5 6 5 6 4 9 C3.34 7.68 2.68 6.36 2 5 C0.0590849 6.9409151 0.81569484 10.62343017 0.79467773 13.27368164 C0.78477814 14.03460617 0.77487854 14.7955307 0.76467896 15.57951355 C0.73297376 18.1063623 0.7082711 20.63322988 0.68359375 23.16015625 C0.66303199 24.90751141 0.64203574 26.65486151 0.62062073 28.40220642 C0.56531959 33.01026318 0.51594592 37.61836541 0.46777344 42.22650146 C0.41761697 46.92513089 0.36190042 51.62369394 0.30664062 56.32226562 C0.19896076 65.54812044 0.09753777 74.77403278 0 84 C-0.33 84 -0.66 84 -1 84 C-1.02312312 73.19541915 -1.04091493 62.39084414 -1.05181217 51.58624363 C-1.05704107 46.5697753 -1.06413883 41.55332385 -1.07543945 36.53686523 C-1.0862681 31.69990306 -1.09227679 26.86295716 -1.09487724 22.02598381 C-1.09673153 20.17631715 -1.10035222 18.32665143 -1.10573006 16.47699165 C-1.1129402 13.89552986 -1.11399095 11.31413618 -1.11352539 8.73266602 C-1.11712067 7.96014999 -1.12071594 7.18763397 -1.12442017 6.39170837 C-1.11405216 1.11405216 -1.11405216 1.11405216 0 0 Z " fill="#263F7F" transform="translate(212,219)"/>
<path d="M0 0 C0.33 0 0.66 0 1 0 C0.29141336 8.14874641 -2.31692379 15.96173153 -8 22 C-8.70125 22.763125 -9.4025 23.52625 -10.125 24.3125 C-12 26 -12 26 -14 26 C-14 26.66 -14 27.32 -14 28 C-22.46480535 31.35690716 -30.66994026 31.35680493 -39.625 31.1875 C-41.02472508 31.17241606 -42.424466 31.15873425 -43.82421875 31.14648438 C-47.21655844 31.11139121 -50.60806775 31.06222265 -54 31 C-54 30.67 -54 30.34 -54 30 C-53.17387207 29.9906543 -52.34774414 29.98130859 -51.49658203 29.97167969 C-48.38362331 29.92723997 -45.27159076 29.86543936 -42.15917969 29.79248047 C-40.16884998 29.75091573 -38.17814514 29.72875456 -36.1875 29.70703125 C-26.76599018 29.46911434 -17.59607632 28.52989653 -10.6875 21.4375 C-5.12511614 15.42563058 -2.3072578 7.76077623 0 0 Z " fill="#25376E" transform="translate(131,250)"/>
<path d="M0 0 C1.98 0.66 3.96 1.32 6 2 C5.67 2.99 5.34 3.98 5 5 C5.66 5.33 6.32 5.66 7 6 C7.639375 6.825 8.27875 7.65 8.9375 8.5 C10.82296043 11.23573514 10.82296043 11.23573514 14 12 C15.9920303 12.08291953 17.98673713 12.10738177 19.98046875 12.09765625 C21.72553711 12.09282227 21.72553711 12.09282227 23.50585938 12.08789062 C25.32827148 12.07532227 25.32827148 12.07532227 27.1875 12.0625 C29.02731445 12.05573242 29.02731445 12.05573242 30.90429688 12.04882812 C33.93624668 12.03703065 36.96809906 12.02056921 40 12 C39.34 9.36 38.68 6.72 38 4 C41.0916909 6.52956528 41.90931332 9.22454612 43 13 C38.61875169 15.19062416 32.74668656 14.26832802 27.87915039 14.29516602 C25.70589761 14.31235449 23.53417654 14.35623807 21.36132812 14.40039062 C19.9739695 14.41052026 18.58659796 14.41903552 17.19921875 14.42578125 C15.93940186 14.44036377 14.67958496 14.45494629 13.3815918 14.4699707 C8.62735047 13.80923036 6.27394705 11.66714058 3.41796875 7.9296875 C3.01191406 7.25164062 2.60585938 6.57359375 2.1875 5.875 C1.76855469 5.19179688 1.34960938 4.50859375 0.91796875 3.8046875 C0 2 0 2 0 0 Z " fill="#599F89" transform="translate(418,292)"/>
<path d="M0 0 C1.46512879 4.39538638 -0.69288269 7.21978838 -2.62109375 11.16796875 C-2.99984146 11.96278152 -3.37858917 12.7575943 -3.76881409 13.57649231 C-4.98252198 16.11801471 -6.2097984 18.65271231 -7.4375 21.1875 C-8.26196868 22.90777161 -9.08554788 24.62846982 -9.90820312 26.34960938 C-11.92850809 30.57142853 -13.96100737 34.78717661 -16 39 C-16.66 39 -17.32 39 -18 39 C-17.6875 35.625 -17.6875 35.625 -17 32 C-16.01 31.34 -15.02 30.68 -14 30 C-10.82726851 24.76104123 -9.55054794 19.20242786 -8.4921875 13.2421875 C-7.86015722 10.36293843 -6.88834821 8.26601785 -5 6 C-4.01 6 -3.02 6 -2 6 C-1.34 4.02 -0.68 2.04 0 0 Z " fill="#21346B" transform="translate(306,194)"/>
<path d="M0 0 C0.66 0.66 1.32 1.32 2 2 C1.67 2.99 1.34 3.98 1 5 C0.34 5 -0.32 5 -1 5 C-2.37185467 6.60997335 -2.37185467 6.60997335 -3.625 8.6875 C-4.07101562 9.37199219 -4.51703125 10.05648437 -4.9765625 10.76171875 C-6.1845892 12.97135198 -6.1845892 12.97135198 -5.9375 15.515625 C-6.02013934 18.80053888 -7.11592662 19.74349202 -9.375 22.0625 C-11.81088907 24.59361931 -13.57752619 26.7742892 -15 30 C-15.99 29.67 -16.98 29.34 -18 29 C-16.57091424 25.02079009 -14.66433497 21.76373523 -12.3046875 18.26171875 C-11.58925781 17.19501953 -10.87382812 16.12832031 -10.13671875 15.02929688 C-9.38291335 13.91529633 -8.62900583 12.80136489 -7.875 11.6875 C-7.11285478 10.55432318 -6.35113164 9.42086235 -5.58984375 8.28710938 C-3.73069414 5.5219185 -1.86729186 2.75969621 0 0 Z " fill="#283E78" transform="translate(381,244)"/>
<path d="M0 0 C9.9 0 19.8 0 30 0 C32.475 4.455 32.475 4.455 35 9 C34.67 9.99 34.34 10.98 34 12 C32.0625 11.3125 32.0625 11.3125 30 10 C29.87625 9.195625 29.7525 8.39125 29.625 7.5625 C29.24549108 4.79853971 29.24549108 4.79853971 26.703125 3.3515625 C21.46813821 1.44090276 16.64716775 1.67988637 11.125 1.8125 C10.05507812 1.82603516 8.98515625 1.83957031 7.8828125 1.85351562 C5.25468489 1.88871376 2.62760806 1.93795307 0 2 C0 1.34 0 0.68 0 0 Z " fill="#253977" transform="translate(189,180)"/>
<path d="M0 0 C0.66 0.33 1.32 0.66 2 1 C-2.73550864 5.98474593 -7.96507591 9.27221757 -14.0625 12.3125 C-14.73474609 12.64958984 -15.40699219 12.98667969 -16.09960938 13.33398438 C-21.83093676 16.1072073 -27.46899467 18.32403093 -33.9375 18.125 C-35.09572266 18.09792969 -35.09572266 18.09792969 -36.27734375 18.0703125 C-36.84582031 18.04710937 -37.41429688 18.02390625 -38 18 C-35.25674333 15.25674333 -33.0672482 15.40251035 -29.25 14.8125 C-18.05059148 12.82055864 -8.19735599 8.00218085 0 0 Z " fill="#22366B" transform="translate(142,286)"/>
<path d="M0 0 C3.17055031 1.69377307 4.3361368 4.57680989 5.9296875 7.66015625 C8.90993612 13.16744243 12.07221504 18.24024666 16.0546875 23.09765625 C15.7246875 23.75765625 15.3946875 24.41765625 15.0546875 25.09765625 C13.07880434 22.5901514 11.12743717 20.06455657 9.1796875 17.53515625 C8.62410156 16.83068359 8.06851562 16.12621094 7.49609375 15.40039062 C4.15501011 11.03282948 2.17551839 7.49608855 1.0546875 2.09765625 C-4.14674234 4.54538794 -6.76720115 8.49977006 -9.9453125 13.09765625 C-10.2753125 12.43765625 -10.6053125 11.77765625 -10.9453125 11.09765625 C-10.01089715 9.82455313 -9.07264139 8.55426825 -8.1328125 7.28515625 C-7.61074219 6.57746094 -7.08867187 5.86976563 -6.55078125 5.140625 C-2.61414562 0.13123221 -2.61414562 0.13123221 0 0 Z " fill="#469178" transform="translate(426.9453125,249.90234375)"/>
<path d="M0 0 C0.80952855 2.30651895 1.18819048 3.5210565 0.27832031 5.83666992 C-0.11774414 6.46162354 -0.51380859 7.08657715 -0.921875 7.73046875 C-1.3655542 8.44348145 -1.8092334 9.15649414 -2.26635742 9.89111328 C-3.0007605 11.02782471 -3.0007605 11.02782471 -3.75 12.1875 C-4.24282471 12.97108887 -4.73564941 13.75467773 -5.2434082 14.56201172 C-6.81471833 17.05072809 -8.40503685 19.52638606 -10 22 C-10.52964355 22.82612793 -11.05928711 23.65225586 -11.60498047 24.50341797 C-14.71376187 29.35073224 -17.84666669 34.18156032 -21 39 C-21.33 38.34 -21.66 37.68 -22 37 C-20.953125 34.77734375 -20.953125 34.77734375 -19.25 31.9375 C-18.60933594 30.86886719 -17.96867187 29.80023438 -17.30859375 28.69921875 C-14.27234443 23.78498802 -11.10840946 18.94980056 -7.90917969 14.14038086 C-4.89730671 9.56789865 -2.36478922 4.94002807 0 0 Z " fill="#1E3668" transform="translate(411,243)"/>
<path d="M0 0 C0.94786377 0.02094727 1.89572754 0.04189453 2.87231445 0.06347656 C4.41435547 0.0828125 4.41435547 0.0828125 5.98754883 0.10253906 C7.0594043 0.13605469 8.13125977 0.16957031 9.2355957 0.20410156 C10.31905273 0.22214844 11.40250977 0.24019531 12.51879883 0.25878906 C15.19611717 0.30596648 17.8716648 0.37177907 20.5480957 0.45410156 C19.8854886 6.26411967 18.61959789 9.59914649 15.5480957 14.45410156 C15.2180957 13.46410156 14.8880957 12.47410156 14.5480957 11.45410156 C15.53544111 9.77990718 16.53621675 8.11358304 17.5480957 6.45410156 C17.5480957 5.13410156 17.5480957 3.81410156 17.5480957 2.45410156 C11.9380957 2.12410156 6.3280957 1.79410156 0.5480957 1.45410156 C0.2180957 2.11410156 -0.1119043 2.77410156 -0.4519043 3.45410156 C-1.1119043 3.45410156 -1.7719043 3.45410156 -2.4519043 3.45410156 C-3.7719043 6.75410156 -5.0919043 10.05410156 -6.4519043 13.45410156 C-7.1119043 13.45410156 -7.7719043 13.45410156 -8.4519043 13.45410156 C-8.02418881 12.03445014 -7.58424887 10.61847917 -7.1394043 9.20410156 C-6.89577148 8.41519531 -6.65213867 7.62628906 -6.40112305 6.81347656 C-3.95459971 0.7324062 -3.95459971 0.7324062 0 0 Z " fill="#253463" transform="translate(292.451904296875,179.5458984375)"/>
<path d="M0 0 C0.66 0.33 1.32 0.66 2 1 C1.2368139 2.60781893 0.46412942 4.21113138 -0.3125 5.8125 C-0.74175781 6.70582031 -1.17101562 7.59914062 -1.61328125 8.51953125 C-3 11 -3 11 -4.5 12.46875 C-6.59130725 14.60362616 -7.49969353 16.95875541 -8.6875 19.6875 C-9.12449219 20.68136719 -9.56148438 21.67523438 -10.01171875 22.69921875 C-10.33785156 23.45847656 -10.66398437 24.21773438 -11 25 C-11.66 23.68 -12.32 22.36 -13 21 C-12.34 20.67 -11.68 20.34 -11 20 C-10.896875 19.113125 -10.79375 18.22625 -10.6875 17.3125 C-10.00728799 14.03511485 -9.60316057 13.24331549 -7.5 10.875 C-5.09316522 8.10714001 -4.77189996 7.30814267 -4 4 C-1.9375 1.75 -1.9375 1.75 0 0 Z " fill="#2C4D93" transform="translate(287,234)"/>
<path d="M0 0 C11.48330717 3.00520592 21.36474281 7.6613072 30 16 C30.33 16.99 30.66 17.98 31 19 C27.88043825 18.01956631 26.1147018 17.117979 23.8125 14.75 C17.10582932 8.19236644 8.80883579 4.84696214 0 2 C0 1.34 0 0.68 0 0 Z " fill="#1E3063" transform="translate(115,182)"/>
<path d="M0 0 C0.33 0.66 0.66 1.32 1 2 C-0.23066948 4.85125815 -1.98348258 7.4310424 -3.625 10.0625 C-4.06457031 10.80822266 -4.50414062 11.55394531 -4.95703125 12.32226562 C-8.24062753 17.62320331 -8.24062753 17.62320331 -11.56640625 19.2734375 C-15.10125907 18.87626303 -16.11283536 17.28411896 -18.3125 14.5625 C-19.00988281 13.71816406 -19.70726562 12.87382812 -20.42578125 12.00390625 C-20.94527344 11.34261719 -21.46476562 10.68132812 -22 10 C-20.68 9.67 -19.36 9.34 -18 9 C-17.608125 9.969375 -17.21625 10.93875 -16.8125 11.9375 C-15.32405113 15.22176391 -15.32405113 15.22176391 -12.3125 15.875 C-11.1678125 15.936875 -11.1678125 15.936875 -10 16 C-9.62875 14.63875 -9.62875 14.63875 -9.25 13.25 C-7.91900827 9.7894215 -6.65482904 8.49866262 -4 6 C-2.63178949 4.02369593 -1.29048808 2.02790984 0 0 Z " fill="#4D967C" transform="translate(438,210)"/>
<path d="M0 0 C0.66 1.32 1.32 2.64 2 4 C1.38125 4.061875 0.7625 4.12375 0.125 4.1875 C-2.19579083 4.78966756 -2.19579083 4.78966756 -2.9375 7.0625 C-3.288125 8.031875 -3.63875 9.00125 -4 10 C-5.58790074 12.72211555 -7.29287314 15.34946092 -9 18 C-4.05 18.33 0.9 18.66 6 19 C6 19.33 6 19.66 6 20 C0.39 20 -5.22 20 -11 20 C-9.875 14.375 -9.875 14.375 -7.71484375 11.23046875 C-7.26689453 10.56982422 -6.81894531 9.90917969 -6.35742188 9.22851562 C-5.88884766 8.55498047 -5.42027344 7.88144531 -4.9375 7.1875 C-4.46505859 6.49462891 -3.99261719 5.80175781 -3.50585938 5.08789062 C-2.3445174 3.3869352 -1.1732322 1.69277605 0 0 Z " fill="#1D2B54" transform="translate(354,285)"/>
<path d="M0 0 C0 4.38274063 -0.59742885 8.27601471 -3 12 C-4.64295195 13.36244796 -6.30824337 14.69864875 -8 16 C-8.33 16.66 -8.66 17.32 -9 18 C-9.66 18 -10.32 18 -11 18 C-9.68493198 13.35250831 -7.83857485 10.0362944 -4.9375 6.1875 C-4.22464844 5.23230469 -3.51179688 4.27710938 -2.77734375 3.29296875 C-1 1 -1 1 0 0 Z " fill="#2C4084" transform="translate(306,224)"/>
<path d="M0 0 C1.91541138 -0.10841951 3.83259773 -0.18578079 5.75 -0.25 C6.81734375 -0.29640625 7.8846875 -0.3428125 8.984375 -0.390625 C12.71547359 0.09267793 13.69650066 1.09625695 16 4 C17.59966573 6.27700166 18.74565785 8.49131571 20 11 C19.67 11.66 19.34 12.32 19 13 C17 11.625 17 11.625 15 10 C15 9.34 15 8.68 15 8 C14.01 7.67 13.02 7.34 12 7 C12 5.33333333 12 3.66666667 12 2 C11.38511719 2.02320313 10.77023437 2.04640625 10.13671875 2.0703125 C8.92435547 2.09738281 8.92435547 2.09738281 7.6875 2.125 C6.88699219 2.14820313 6.08648437 2.17140625 5.26171875 2.1953125 C3 2 3 2 0 0 Z " fill="#233572" transform="translate(365,180)"/>
<path d="M0 0 C0.99 0.33 1.98 0.66 3 1 C2.401875 1.639375 1.80375 2.27875 1.1875 2.9375 C-0.80450633 5.72630886 -1.5202172 7.3678254 -2.4375 10.5625 C-3.68465643 14.7196881 -5.23048997 16.65679106 -9 19 C-9.33 18.34 -9.66 17.68 -10 17 C-9.06553465 14.96855359 -8.06775224 12.96466413 -7 11 C-6.01 11 -5.02 11 -4 11 C-3.8453125 9.6696875 -3.8453125 9.6696875 -3.6875 8.3125 C-2.98809298 4.9426298 -1.91257489 2.82728462 0 0 Z " fill="#294081" transform="translate(290,182)"/>
<path d="M0 0 C1 2 1 2 1 6 C1.66 5.67 2.32 5.34 3 5 C4.29243536 9.1196377 5.26252625 12.66831683 5 17 C2.03925765 14.24344678 -0.35509202 11.72268649 -2 8 C-1.57142857 1.57142857 -1.57142857 1.57142857 0 0 Z " fill="#53A28C" transform="translate(410,270)"/>
<path d="M0 0 C1 3 1 3 0.07421875 5.4453125 C-0.38339844 6.32960937 -0.84101563 7.21390625 -1.3125 8.125 C-1.76238281 9.01445312 -2.21226562 9.90390625 -2.67578125 10.8203125 C-4 13 -4 13 -6 14 C-6.72159424 15.64363134 -7.39351421 17.31050386 -8 19 C-8.97099482 16.37831399 -9.06599958 15.20307562 -8.1875 12.5 C-7.15119028 10.31829532 -6.11182572 8.14423532 -5 6 C-4.01 6 -3.02 6 -2 6 C-1.34 4.02 -0.68 2.04 0 0 Z " fill="#273F7E" transform="translate(306,194)"/>
<path d="M0 0 C6.27 0 12.54 0 19 0 C19 0.33 19 0.66 19 1 C10.585 1.495 10.585 1.495 2 2 C2.99 3.98 3.98 5.96 5 8 C4.67 8.99 4.34 9.98 4 11 C3.1361871 9.54735962 2.28419546 8.0876837 1.4375 6.625 C0.72400391 5.40683594 0.72400391 5.40683594 -0.00390625 4.1640625 C-0.33261719 3.44992188 -0.66132813 2.73578125 -1 2 C-0.67 1.34 -0.34 0.68 0 0 Z " fill="#2B3C67" transform="translate(346,180)"/>
<path d="M0 0 C0.66 0 1.32 0 2 0 C0.51492933 3.75830733 -1.52071389 5.41236747 -4.8125 7.6875 C-5.66457031 8.28949219 -6.51664063 8.89148438 -7.39453125 9.51171875 C-10.00225452 11.00128781 -12.04363619 11.60192588 -15 12 C-5.9375 2.67857143 -5.9375 2.67857143 0 2 C0 1.34 0 0.68 0 0 Z " fill="#2C4A95" transform="translate(140,285)"/>
<path d="M0 0 C0.33 0.66 0.66 1.32 1 2 C0.01196289 3.97119141 0.01196289 3.97119141 -1.52734375 6.3515625 C-2.07197266 7.20234375 -2.61660156 8.053125 -3.17773438 8.9296875 C-4.04881836 10.26386719 -4.04881836 10.26386719 -4.9375 11.625 C-5.8027832 12.97078125 -5.8027832 12.97078125 -6.68554688 14.34375 C-8.11660783 16.56721661 -9.5549815 18.78558887 -11 21 C-11.33 20.01 -11.66 19.02 -12 18 C-10.78507918 15.72275711 -9.54499305 13.64186242 -8.125 11.5 C-5.14338171 6.96901295 -5.14338171 6.96901295 -3 2 C-2.01 1.34 -1.02 0.68 0 0 Z " fill="#1B3367" transform="translate(388,282)"/>
<path d="M0 0 C0.33 0.66 0.66 1.32 1 2 C-0.09166436 3.6748823 -1.19873637 5.33973123 -2.3125 7 C-2.92738281 7.928125 -3.54226562 8.85625 -4.17578125 9.8125 C-4.77777344 10.534375 -5.37976563 11.25625 -6 12 C-6.99 12 -7.98 12 -9 12 C-8 10 -8 10 -6 7 C-6 6.01 -6 5.02 -6 4 C-5.67 3.01 -5.34 2.02 -5 1 C-4.01 1.33 -3.02 1.66 -2 2 C-1.34 1.34 -0.68 0.68 0 0 Z " fill="#2C4C96" transform="translate(151,272)"/>
<path d="M0 0 C2.94897721 2.74559948 5.26205705 5.34117274 7 9 C6.6875 11.3125 6.6875 11.3125 6 13 C5.01 12.34 4.02 11.68 3 11 C3 10.34 3 9.68 3 9 C2.34 8.67 1.68 8.34 1 8 C0.40644386 5.35139573 0.25790731 2.70802678 0 0 Z " fill="#25397D" transform="translate(385,193)"/>
<path d="M0 0 C0.66 0.33 1.32 0.66 2 1 C1.01 2.98 0.02 4.96 -1 7 C-6.61 7 -12.22 7 -18 7 C-18.66 5.68 -19.32 4.36 -20 3 C-18.68 3.33 -17.36 3.66 -16 4 C-16 4.33 -16 4.66 -16 5 C-12.37 5.33 -8.74 5.66 -5 6 C-4.67 5.34 -4.34 4.68 -4 4 C-3.34 4 -2.68 4 -2 4 C-1.34 2.68 -0.68 1.36 0 0 Z " fill="#284083" transform="translate(262,284)"/>
<path d="M0 0 C0.99 0.33 1.98 0.66 3 1 C2.071875 1.721875 1.14375 2.44375 0.1875 3.1875 C-2.62086401 5.51686734 -4.17580679 7.82749006 -6 11 C-10.36170213 15.68085106 -10.36170213 15.68085106 -13 17 C-11.3867231 13.2999845 -9.06926004 10.46979051 -6.5 7.375 C-5.7059375 6.41335938 -4.911875 5.45171875 -4.09375 4.4609375 C-2 2 -2 2 0 0 Z " fill="#59AB94" transform="translate(425,252)"/>
<path d="M0 0 C2.34211663 2.89399469 3.86862171 5.67155428 5.25 9.125 C5.60578125 9.99382812 5.9615625 10.86265625 6.328125 11.7578125 C7 14 7 14 6 16 C5.34 15.01 4.68 14.02 4 13 C3.01 13 2.02 13 1 13 C1.020625 11.96875 1.04125 10.9375 1.0625 9.875 C1.00723339 6.44847031 0.65449285 3.35427586 0 0 Z " fill="#1A336F" transform="translate(224,192)"/>
<path d="M0 0 C6.6 0 13.2 0 20 0 C20 0.33 20 0.66 20 1 C18.77023437 1.09087891 18.77023437 1.09087891 17.515625 1.18359375 C15.89914062 1.30927734 15.89914062 1.30927734 14.25 1.4375 C13.18265625 1.51871094 12.1153125 1.59992188 11.015625 1.68359375 C6.42050941 2.16572375 2.36762394 3.51103729 -2 5 C-1.34 3.35 -0.68 1.7 0 0 Z " fill="#54B899" transform="translate(424,181)"/>
<path d="M0 0 C1 2 1 2 0.25 5.3125 C-0.86508291 8.60199459 -2.1053551 11.11684472 -4 14 C-4.33 14.66 -4.66 15.32 -5 16 C-5.66 16 -6.32 16 -7 16 C-5.26017005 10.18738629 -3.1889511 5.16830006 0 0 Z " fill="#233370" transform="translate(279,201)"/>
<path d="M0 0 C3 1 3 1 3.9375 2.6875 C4.03398292 6.25736802 2.08083079 8.22555895 0 11 C-0.99 10.34 -1.98 9.68 -3 9 C-3 8.01 -3 7.02 -3 6 C-2.01 5.34 -1.02 4.68 0 4 C0 2.68 0 1.36 0 0 Z " fill="#5DB4A0" transform="translate(453,181)"/>
<path d="M0 0 C2.94721162 2.74395564 5.19168608 5.38337216 7 9 C6.67 9.66 6.34 10.32 6 11 C4.1875 10.5 4.1875 10.5 2 9 C0.73847391 6.4136076 -0.15643045 3.74799171 -1 1 C-0.67 0.67 -0.34 0.34 0 0 Z " fill="#294992" transform="translate(401,221)"/>
<path d="M0 0 C0.66 1.32 1.32 2.64 2 4 C1.38125 4.061875 0.7625 4.12375 0.125 4.1875 C-0.57625 4.455625 -1.2775 4.72375 -2 5 C-2.72904086 6.64034193 -3.38655243 8.31301918 -4 10 C-5.28667172 11.70294787 -6.61096733 13.37946188 -8 15 C-7.4520917 10.7170548 -5.97567196 8.14864359 -3.4375 4.6875 C-2.79683594 3.80449219 -2.15617187 2.92148437 -1.49609375 2.01171875 C-0.75552734 1.01591797 -0.75552734 1.01591797 0 0 Z " fill="#223363" transform="translate(354,285)"/>
<path d="M0 0 C0.33 0 0.66 0 1 0 C1.12375 0.94875 1.2475 1.8975 1.375 2.875 C1.71687177 6.08667191 1.71687177 6.08667191 4 8 C4.625 10.625 4.625 10.625 5 13 C4.01 13 3.02 13 2 13 C1.30314502 11.3789897 0.61777139 9.75303934 -0.0625 8.125 C-0.44535156 7.22007812 -0.82820312 6.31515625 -1.22265625 5.3828125 C-2 3 -2 3 -1 1 C-0.67 0.67 -0.34 0.34 0 0 Z " fill="#2C4991" transform="translate(219,225)"/>
<path d="M0 0 C0.66 0 1.32 0 2 0 C4.29648649 2.5614657 5 3.47967572 5 7 C5.99 7.33 6.98 7.66 8 8 C8.33 9.98 8.66 11.96 9 14 C4.4434473 10.28725335 2.42599607 5.20992598 0 0 Z " fill="#2E4A90" transform="translate(371,219)"/>
<path d="M0 0 C5.61 0 11.22 0 17 0 C12.7014424 2.1492788 10.68841718 2.08225293 6 2 C4.32442621 2.28520405 2.65182755 2.59955696 1 3 C0.67 2.01 0.34 1.02 0 0 Z " fill="#324B8F" transform="translate(293,181)"/>
<path d="M0 0 C0.66 0.33 1.32 0.66 2 1 C0.35 4.3 -1.3 7.6 -3 11 C-5 8 -5 8 -4.875 6.0625 C-3.75334838 3.41860689 -2.11358624 1.90904564 0 0 Z " fill="#243F7A" transform="translate(287,234)"/>
<path d="M0 0 C0.66 0 1.32 0 2 0 C2.33 0.99 2.66 1.98 3 3 C1.78515625 5.26171875 1.78515625 5.26171875 0.0625 7.6875 C-0.50339844 8.49574219 -1.06929688 9.30398438 -1.65234375 10.13671875 C-2.09707031 10.75160156 -2.54179687 11.36648438 -3 12 C-4.21386936 8.35839192 -3.6674695 7.66834531 -2.0625 4.3125 C-1.49208984 3.10013672 -1.49208984 3.10013672 -0.91015625 1.86328125 C-0.60980469 1.24839844 -0.30945313 0.63351563 0 0 Z " fill="#2A4E95" transform="translate(402,253)"/>
<path d="M0 0 C0.66 0.66 1.32 1.32 2 2 C0.35 4.64 -1.3 7.28 -3 10 C-4 6 -4 6 -2.0625 2.75 C-1.381875 1.8425 -0.70125 0.935 0 0 Z " fill="#2B4C96" transform="translate(381,288)"/>
<path d="M0 0 C0.66 0 1.32 0 2 0 C2.82622671 5.60563042 3.06795656 10.42289352 2 16 C1.67 16 1.34 16 1 16 C0.67 10.72 0.34 5.44 0 0 Z " fill="#2F4B94" transform="translate(132,231)"/>
<path d="M0 0 C3.33773709 3.64116773 3.97864902 7.28607242 5 12 C2 11 2 11 0.8125 8.8125 C-0.07334979 5.74609689 -0.14770318 3.17561845 0 0 Z " fill="#2B4890" transform="translate(232,214)"/>
<path d="M0 0 C0.33 0 0.66 0 1 0 C1.33 2.97 1.66 5.94 2 9 C2.99 9.33 3.98 9.66 5 10 C4.67 11.32 4.34 12.64 4 14 C-1.05908096 7.10284464 -1.05908096 7.10284464 -0.8125 2.5 C-0.544375 1.675 -0.27625 0.85 0 0 Z " fill="#4F8E7E" transform="translate(409,201)"/>
<path d="M0 0 C2.02045442 0.60183749 4.02111039 1.27306096 6 2 C7 4 7 4 7 7 C4.625 6.3125 4.625 6.3125 2 5 C0.6875 2.375 0.6875 2.375 0 0 Z " fill="#52B295" transform="translate(415,287)"/>
<path d="M0 0 C3 1 3 1 4.25 3.375 C5 6 5 6 4 9 C3.34 7.68 2.68 6.36 2 5 C1.01 5.33 0.02 5.66 -1 6 C-1.042721 4.33388095 -1.04063832 2.66617115 -1 1 C-0.67 0.67 -0.34 0.34 0 0 Z " fill="#283C74" transform="translate(212,219)"/>
<path d="M0 0 C2 1 2 1 2.6328125 2.84765625 C2.79523438 3.57855469 2.95765625 4.30945313 3.125 5.0625 C3.29257813 5.79597656 3.46015625 6.52945313 3.6328125 7.28515625 C3.75398437 7.85105469 3.87515625 8.41695312 4 9 C2.68 8.67 1.36 8.34 0 8 C-0.79953138 4.71303767 -1.09658936 3.28976808 0 0 Z " fill="#28468F" transform="translate(242,237)"/>
<path d="M0 0 C0.99 0.33 1.98 0.66 3 1 C3 2.98 3 4.96 3 7 C2.01 5.68 1.02 4.36 0 3 C-1.65 4.32 -3.3 5.64 -5 7 C-5.33 6.34 -5.66 5.68 -6 5 C-1.60546875 0.99609375 -1.60546875 0.99609375 0 0 Z " fill="#1C2B53" transform="translate(313,217)"/>
<path d="M0 0 C3.39417765 3.12621626 5.6062718 5.56541027 7 10 C6.01 10.495 6.01 10.495 5 11 C4.16151196 9.54462432 3.32936066 8.08559627 2.5 6.625 C1.80390625 5.40683594 1.80390625 5.40683594 1.09375 4.1640625 C0 2 0 2 0 0 Z " fill="#1E3467" transform="translate(146,201)"/>
<path d="M0 0 C0.99 0 1.98 0 3 0 C3 0.99 3 1.98 3 3 C-1.62 3 -6.24 3 -11 3 C-11 2.67 -11 2.34 -11 2 C-10.28972656 1.93941406 -9.57945312 1.87882812 -8.84765625 1.81640625 C-7.46900391 1.69072266 -7.46900391 1.69072266 -6.0625 1.5625 C-5.14597656 1.48128906 -4.22945313 1.40007812 -3.28515625 1.31640625 C-1.03840268 1.23955024 -1.03840268 1.23955024 0 0 Z " fill="#29468D" transform="translate(373,300)"/>
<path d="M0 0 C0.144375 0.61875 0.28875 1.2375 0.4375 1.875 C0.93152225 4.03258322 0.93152225 4.03258322 2 6 C1.34 6 0.68 6 0 6 C0 6.66 0 7.32 0 8 C-1.32 8 -2.64 8 -4 8 C-2.87548273 5.0280615 -1.77706209 2.66559313 0 0 Z " fill="#2F488A" transform="translate(349,295)"/>
<path d="M0 0 C0.99 0 1.98 0 3 0 C3 0.66 3 1.32 3 2 C3.66 2.66 4.32 3.32 5 4 C1.535 5.485 1.535 5.485 -2 7 C-1.34 4.69 -0.68 2.38 0 0 Z " fill="#2E4993" transform="translate(259,243)"/>
<path d="M0 0 C0 2 0 4 0 6 C-0.66 6 -1.32 6 -2 6 C-2 6.66 -2 7.32 -2 8 C-3.32 8.33 -4.64 8.66 -6 9 C-4.47291037 5.56404834 -2.40072955 2.88087546 0 0 Z " fill="#283A70" transform="translate(306,224)"/>
<path d="M0 0 C0.99 0.33 1.98 0.66 3 1 C2.01 2.98 1.02 4.96 0 7 C-3 7 -3 7 -5 6 C-3.35 4.02 -1.7 2.04 0 0 Z " fill="#59A38F" transform="translate(414,194)"/>
<path d="M0 0 C1 2 1 2 0.25 5.5625 C-0.1625 6.696875 -0.575 7.83125 -1 9 C-1.99 9.33 -2.98 9.66 -4 10 C-3.52449439 8.51965236 -3.04448784 7.04074979 -2.5625 5.5625 C-2.29566406 4.73878906 -2.02882813 3.91507813 -1.75390625 3.06640625 C-1 1 -1 1 0 0 Z " fill="#24386F" transform="translate(271,217)"/>
<path d="M0 0 C0 0.66 0 1.32 0 2 C-3.63 1.67 -7.26 1.34 -11 1 C-11 0.67 -11 0.34 -11 0 C-3.375 -2.25 -3.375 -2.25 0 0 Z " fill="#2F478D" transform="translate(110,203)"/>
<path d="M0 0 C1.65 0.33 3.3 0.66 5 1 C2.23776722 3.76223278 -0.20706617 3.57856291 -4 4 C-3.67 3.01 -3.34 2.02 -3 1 C-2.01 1.33 -1.02 1.66 0 2 C0 1.34 0 0.68 0 0 Z " fill="#284896" transform="translate(118,297)"/>
<path d="M0 0 C2.475 0.495 2.475 0.495 5 1 C5.66 3.31 6.32 5.62 7 8 C4.35247996 5.42215154 2.05567935 3.08351902 0 0 Z " fill="#5F9C8E" transform="translate(416,219)"/>
<path d="M0 0 C0.99 0.33 1.98 0.66 3 1 C0.525 4.465 0.525 4.465 -2 8 C-2.66 7.67 -3.32 7.34 -4 7 C-2.68 4.69 -1.36 2.38 0 0 Z " fill="#2E478A" transform="translate(290,182)"/>
<path d="M0 0 C0.99 0.33 1.98 0.66 3 1 C2.01 2.98 1.02 4.96 0 7 C-0.99 6.67 -1.98 6.34 -3 6 C-2.01 4.02 -1.02 2.04 0 0 Z " fill="#2B4895" transform="translate(264,277)"/>
<path d="M0 0 C4.875 4.625 4.875 4.625 6 8 C5.01 7.67 4.02 7.34 3 7 C3 6.34 3 5.68 3 5 C2.01 5.33 1.02 5.66 0 6 C0 4.02 0 2.04 0 0 Z " fill="#51BA99" transform="translate(433,263)"/>
<path d="M0 0 C2.69725519 1.88807863 4.13216429 3.19824644 6 6 C5.01 6.99 4.02 7.98 3 9 C2.01 6.03 1.02 3.06 0 0 Z " fill="#2F4B91" transform="translate(128,222)"/>
<path d="M0 0 C0.99 0.33 1.98 0.66 3 1 C2.01 2.485 2.01 2.485 1 4 C0.54860541 6.0492094 0.54860541 6.0492094 0.375 8.1875 C0.25125 9.445625 0.1275 10.70375 0 12 C-0.33 12 -0.66 12 -1 12 C-1.02687279 10.18757948 -1.04633715 8.37504767 -1.0625 6.5625 C-1.07410156 5.55316406 -1.08570313 4.54382813 -1.09765625 3.50390625 C-1 1 -1 1 0 0 Z " fill="#324B8C" transform="translate(190,181)"/>
<path d="M0 0 C1.74627478 2.61941217 2.38722388 4.03824877 3 7 C0.525 6.01 0.525 6.01 -2 5 C-2 4.01 -2 3.02 -2 2 C-1.34 2 -0.68 2 0 2 C0 1.34 0 0.68 0 0 Z " fill="#2B4998" transform="translate(246,246)"/>
<path d="" fill="#FFFFFF" transform="translate(0,0)"/>
<path d="" fill="#FFFFFF" transform="translate(0,0)"/>
<path d="" fill="#FFFFFF" transform="translate(0,0)"/>
<path d="" fill="#FFFFFF" transform="translate(0,0)"/>
<path d="" fill="#FFFFFF" transform="translate(0,0)"/>
<path d="" fill="#FFFFFF" transform="translate(0,0)"/>
<path d="" fill="#FFFFFF" transform="translate(0,0)"/>
<path d="" fill="#FFFFFF" transform="translate(0,0)"/>
<path d="" fill="#FFFFFF" transform="translate(0,0)"/>
<path d="" fill="#FFFFFF" transform="translate(0,0)"/>
<path d="" fill="#FFFFFF" transform="translate(0,0)"/>
<path d="" fill="#FFFFFF" transform="translate(0,0)"/>
<path d="" fill="#FFFFFF" transform="translate(0,0)"/>
<path d="" fill="#FFFFFF" transform="translate(0,0)"/>
<path d="" fill="#FFFFFF" transform="translate(0,0)"/>
<path d="" fill="#FFFFFF" transform="translate(0,0)"/>
<path d="" fill="#FFFFFF" transform="translate(0,0)"/>
<path d="" fill="#FFFFFF" transform="translate(0,0)"/>
<path d="" fill="#FFFFFF" transform="translate(0,0)"/>
<path d="" fill="#FFFFFF" transform="translate(0,0)"/>
<path d="" fill="#FFFFFF" transform="translate(0,0)"/>
<path d="" fill="#FFFFFF" transform="translate(0,0)"/>
<path d="" fill="#FFFFFF" transform="translate(0,0)"/>
<path d="" fill="#FFFFFF" transform="translate(0,0)"/>
<path d="" fill="#FFFFFF" transform="translate(0,0)"/>
<path d="" fill="#FFFFFF" transform="translate(0,0)"/>
<path d="" fill="#FFFFFF" transform="translate(0,0)"/>
<path d="" fill="#FFFFFF" transform="translate(0,0)"/>
<path d="" fill="#FFFFFF" transform="translate(0,0)"/>
<path d="" fill="#FFFFFF" transform="translate(0,0)"/>
<path d="" fill="#FFFFFF" transform="translate(0,0)"/>
<path d="" fill="#FFFFFF" transform="translate(0,0)"/>
<path d="" fill="#FFFFFF" transform="translate(0,0)"/>
<path d="" fill="#FFFFFF" transform="translate(0,0)"/>
<path d="" fill="#FFFFFF" transform="translate(0,0)"/>
<path d="" fill="#FFFFFF" transform="translate(0,0)"/>
<path d="" fill="#FFFFFF" transform="translate(0,0)"/>
<path d="" fill="#FFFFFF" transform="translate(0,0)"/>
<path d="" fill="#FFFFFF" transform="translate(0,0)"/>
<path d="" fill="#FFFFFF" transform="translate(0,0)"/>
<path d="" fill="#FFFFFF" transform="translate(0,0)"/>
<path d="" fill="#FFFFFF" transform="translate(0,0)"/>
<path d="" fill="#FFFFFF" transform="translate(0,0)"/>
<path d="" fill="#FFFFFF" transform="translate(0,0)"/>
<path d="" fill="#FFFFFF" transform="translate(0,0)"/>
<path d="" fill="#FFFFFF" transform="translate(0,0)"/>
<path d="" fill="#FFFFFF" transform="translate(0,0)"/>
<path d="" fill="#FFFFFF" transform="translate(0,0)"/>
<path d="" fill="#FFFFFF" transform="translate(0,0)"/>
<path d="" fill="#FFFFFF" transform="translate(0,0)"/>
<path d="" fill="#FFFFFF" transform="translate(0,0)"/>
<path d="" fill="#FFFFFF" transform="translate(0,0)"/>
<path d="" fill="#FFFFFF" transform="translate(0,0)"/>
<path d="" fill="#FFFFFF" transform="translate(0,0)"/>
<path d="" fill="#FFFFFF" transform="translate(0,0)"/>
<path d="" fill="#FFFFFF" transform="translate(0,0)"/>
<path d="" fill="#FFFFFF" transform="translate(0,0)"/>
<path d="" fill="#FFFFFF" transform="translate(0,0)"/>
<path d="" fill="#FFFFFF" transform="translate(0,0)"/>
<path d="" fill="#FFFFFF" transform="translate(0,0)"/>
<path d="" fill="#FFFFFF" transform="translate(0,0)"/>
<path d="" fill="#FFFFFF" transform="translate(0,0)"/>
<path d="" fill="#FFFFFF" transform="translate(0,0)"/>
<path d="" fill="#FFFFFF" transform="translate(0,0)"/>
<path d="" fill="#FFFFFF" transform="translate(0,0)"/>
<path d="" fill="#FFFFFF" transform="translate(0,0)"/>
<path d="" fill="#FFFFFF" transform="translate(0,0)"/>
<path d="" fill="#FFFFFF" transform="translate(0,0)"/>
<path d="" fill="#FFFFFF" transform="translate(0,0)"/>
<path d="" fill="#FFFFFF" transform="translate(0,0)"/>
<path d="" fill="#FFFFFF" transform="translate(0,0)"/>
<path d="" fill="#FFFFFF" transform="translate(0,0)"/>
<path d="" fill="#FFFFFF" transform="translate(0,0)"/>
<path d="" fill="#FFFFFF" transform="translate(0,0)"/>
<path d="" fill="#FFFFFF" transform="translate(0,0)"/>
<path d="" fill="#FFFFFF" transform="translate(0,0)"/>
<path d="" fill="#FFFFFF" transform="translate(0,0)"/>
</svg>
