<svg version="1.1" id="Layer_1" xmlns="http://www.w3.org/2000/svg" xmlns:xlink="http://www.w3.org/1999/xlink" x="0px" y="0px"
	 width="100%" viewBox="0 0 992 992" enable-background="new 0 0 992 992" xml:space="preserve">
<path fill="#000000" opacity="1.000000" stroke="none" 
	d="
M286.239441,576.242554 
	C266.512543,595.967773 242.453842,605.290222 215.552597,608.370239 
	C200.663742,610.074829 185.735062,611.296143 170.748413,611.022461 
	C148.281403,610.612122 125.820999,609.849060 103.355186,609.353943 
	C100.001236,609.280029 98.485840,608.165527 98.620926,604.664917 
	C98.800636,600.007874 98.663254,595.338684 98.663094,590.674683 
	C98.660530,517.049988 98.657249,443.425323 98.657104,369.800629 
	C98.657089,362.666840 98.666229,362.645020 105.684387,362.651550 
	C139.498169,362.683075 173.317947,362.337128 207.124359,362.856750 
	C260.556946,363.677979 309.641296,399.566772 319.265167,460.141602 
	C324.246155,491.493347 321.569794,521.842224 306.076782,550.238037 
	C300.858521,559.802185 294.299225,568.379028 286.239441,576.242554 
M155.347778,455.499908 
	C155.348511,488.645386 155.416397,521.791199 155.268173,554.935974 
	C155.248840,559.261292 156.511963,560.812561 160.932327,560.735413 
	C173.920090,560.508423 186.926895,561.007751 199.902481,560.549744 
	C212.817902,560.093811 225.414780,557.935181 235.871613,549.270325 
	C247.910370,539.294617 256.356812,526.814697 259.981262,511.673401 
	C262.381500,501.646271 261.478821,491.160187 261.685364,480.844299 
	C261.995880,465.333862 258.038574,451.315186 249.153137,438.567688 
	C240.132797,425.626648 228.733276,415.787140 212.812073,413.519714 
	C195.508301,411.055420 177.918259,412.342072 160.482605,411.287415 
	C156.520950,411.047791 155.242950,412.666351 155.291824,416.524872 
	C155.452148,429.181427 155.349686,441.841309 155.347778,455.499908 
z"/>
<path fill="#000000" opacity="1.000000" stroke="none" 
	d="
M376.075439,455.000000 
	C376.069946,425.842804 376.061340,397.185638 376.059937,368.528442 
	C376.059570,361.569153 376.413269,361.053131 383.278687,360.842041 
	C401.270752,360.288788 419.249359,360.918457 437.228882,361.594208 
	C440.246460,361.707642 441.168518,363.537994 442.112305,365.727386 
	C452.987305,390.955170 463.970245,416.137115 474.712860,441.421143 
	C483.760864,462.716675 492.524506,484.132965 501.437469,505.486023 
	C502.061371,506.980652 502.490906,508.699127 504.603943,509.356873 
	C507.650024,507.184479 508.812622,503.602814 510.402588,500.434143 
	C532.214783,456.964874 554.113770,413.537079 575.508118,369.862335 
	C578.824280,363.092773 583.066772,360.514069 590.085449,360.653534 
	C599.078735,360.832245 608.079468,360.602325 617.075195,360.704010 
	C626.972595,360.815918 628.611633,363.013855 624.419189,372.127563 
	C614.608826,393.453918 604.373901,414.584747 594.347412,435.812012 
	C571.660950,483.842072 548.952515,531.861938 526.403870,579.956604 
	C524.518433,583.978027 522.317261,585.690308 517.741516,585.479248 
	C509.262390,585.088318 500.743622,585.140320 492.258728,585.463501 
	C487.925354,585.628540 485.711853,584.066345 483.966553,580.142639 
	C471.785187,552.756958 460.974518,524.809204 449.630066,497.081116 
	C443.831299,482.907715 438.181366,468.673370 432.381012,454.500610 
	C431.736481,452.925812 431.679932,450.800659 429.454224,450.114899 
	C427.541565,451.696686 428.381134,453.845215 428.372070,455.691071 
	C428.181793,494.344391 428.092377,532.998230 427.901184,571.651489 
	C427.845978,582.809387 427.502991,593.965637 427.366272,605.123596 
	C427.332306,607.893433 427.204803,609.949463 423.375946,609.699890 
	C409.581390,608.800659 395.737732,609.564331 381.925934,608.543640 
	C377.788330,608.237854 376.583221,606.959229 376.599976,602.929626 
	C376.726685,572.440247 376.730957,541.949829 376.634277,511.460236 
	C376.575134,492.806427 376.269775,474.153381 376.075439,455.000000 
z"/>
<path fill="#000000" opacity="1.000000" stroke="none" 
	d="
M786.797058,409.265930 
	C797.123962,425.820312 807.179321,442.116882 817.392700,458.313843 
	C827.674988,474.620087 827.747009,490.253174 816.945190,506.797028 
	C795.921265,538.997070 775.720581,571.735901 755.322266,604.341187 
	C753.025757,608.012085 750.399170,609.262085 746.069458,609.516968 
	C728.421021,610.555481 710.807556,609.934631 693.181030,609.319092 
	C686.860168,609.098267 686.370361,608.239075 689.717102,602.722046 
	C708.287109,572.108948 728.367188,542.463989 747.669495,512.320435 
	C752.336670,505.031921 756.533997,497.439301 761.288879,490.211243 
	C764.827759,484.831696 764.766052,480.247925 761.124023,474.727753 
	C750.123047,458.053986 739.632141,441.044037 728.911011,424.185089 
	C719.084290,408.732544 709.174622,393.332550 699.399475,377.847473 
	C697.183105,374.336395 695.280823,370.615601 693.403442,366.905579 
	C691.960938,364.054840 692.838623,362.007782 696.097839,361.417145 
	C698.213074,361.033813 700.376160,360.725281 702.519287,360.715851 
	C716.342773,360.655151 730.166748,360.721008 743.990295,360.672760 
	C751.277161,360.647339 756.849487,362.908295 761.131348,369.527557 
	C769.629395,382.664886 778.376465,395.643250 786.797058,409.265930 
z"/>
<path fill="#000000" opacity="1.000000" stroke="none" 
	d="
M632.037354,448.300354 
	C633.329468,500.580109 633.433533,552.399231 633.406494,604.220520 
	C633.404541,608.042725 632.338989,609.506897 628.305969,609.444031 
	C614.810913,609.233643 601.309204,609.264343 587.812866,609.432922 
	C583.985291,609.480713 582.560547,608.336853 582.585876,604.329041 
	C582.771179,575.000366 583.218262,545.661621 582.657959,516.343750 
	C582.234070,494.159821 592.747620,476.829681 605.021545,459.979584 
	C610.818970,452.020599 617.124390,444.469971 624.669128,438.075165 
	C626.106079,436.857239 627.656067,434.855499 629.851562,435.907074 
	C631.809570,436.844910 631.171753,439.104492 631.339844,440.878693 
	C631.559265,443.196106 631.780640,445.513275 632.037354,448.300354 
z"/>
<path fill="#000000" opacity="1.000000" stroke="none" 
	d="
M893.377625,559.683838 
	C902.641968,574.731873 911.769836,589.437866 920.747437,604.234985 
	C924.019226,609.627625 923.154175,611.583069 916.726318,612.298218 
	C898.316040,614.346558 879.841492,613.507263 861.390137,612.867432 
	C856.641479,612.702881 852.976013,610.237671 850.068665,606.424011 
	C844.304749,598.863525 838.628967,591.269531 835.704529,582.060669 
	C835.309814,580.817810 834.452515,580.196045 833.610962,579.403992 
	C826.381836,572.599548 821.832458,564.147644 819.224426,554.715149 
	C817.699280,549.199158 818.463501,543.919617 822.654480,539.375061 
	C828.561157,532.970154 832.312012,525.038879 837.272217,517.956726 
	C840.909302,512.763855 844.730347,507.709259 850.044739,504.061096 
	C854.643738,500.904053 857.680603,501.394592 860.212280,506.423828 
	C869.604675,525.082092 882.658691,541.438782 893.377625,559.683838 
z"/>
<path fill="#000000" opacity="1.000000" stroke="none" 
	d="
M887.000061,359.630249 
	C894.648193,359.831116 901.802063,359.417328 908.936523,360.551636 
	C915.194763,361.546692 917.016846,364.562836 913.610596,370.088470 
	C906.096802,382.277100 898.436340,394.380280 890.594482,406.360443 
	C881.383057,420.432892 872.058350,434.428955 863.412537,448.862335 
	C862.386963,450.574402 861.282593,452.248047 860.102539,453.857239 
	C855.824219,459.691345 851.892517,460.441315 846.932312,455.181580 
	C836.864258,444.505585 827.692505,433.064331 821.268250,419.711060 
	C817.198608,411.252014 818.156677,403.550079 824.007812,395.954132 
	C830.806702,387.127716 836.935364,377.783264 843.310547,368.632812 
	C847.741455,362.273132 853.470825,359.092041 861.519714,359.559601 
	C869.819824,360.041748 878.171204,359.642365 887.000061,359.630249 
z"/>
</svg>