<svg version="1.2" xmlns="http://www.w3.org/2000/svg" viewBox="0 0 90 31" width="90" height="31">
	<title>file</title>
	<style>
		.s0 { fill: #000000 } 
	</style>
	<path class="s0" d="m22.85 25.09c-1.98 1.99-4.41 2.93-7.12 3.24-1.5 0.17-3.01 0.29-4.52 0.27q-3.39-0.08-6.79-0.17c-0.34-0.01-0.49-0.12-0.48-0.48q0.02-0.7 0.01-1.41 0-11.13 0-22.26c0-0.72 0-0.72 0.7-0.72 3.41 0 6.82-0.03 10.23 0.02 5.39 0.08 10.33 3.7 11.3 9.81 0.51 3.16 0.24 6.22-1.33 9.08q-0.78 1.44-2 2.62zm-13.19-12.17q0.01 5.01-0.01 10.02c0 0.44 0.13 0.59 0.57 0.59 1.31-0.03 2.62 0.02 3.93-0.02 1.3-0.05 2.57-0.27 3.63-1.14 1.21-1.01 2.06-2.26 2.43-3.79 0.24-1.01 0.15-2.07 0.17-3.11 0.03-1.56-0.37-2.97-1.26-4.26-0.91-1.3-2.06-2.3-3.67-2.52-1.74-0.25-3.51-0.12-5.27-0.23-0.4-0.02-0.53 0.14-0.53 0.53 0.02 1.27 0.01 2.55 0.01 3.93z"/>
	<path class="s0" d="m31.91 12.87q0-4.4 0-8.72c0-0.7 0.03-0.75 0.73-0.77 1.81-0.06 3.62 0 5.44 0.07 0.3 0.01 0.39 0.2 0.49 0.42q1.65 3.81 3.28 7.63 1.36 3.22 2.7 6.46c0.06 0.15 0.1 0.32 0.32 0.39 0.3-0.22 0.42-0.58 0.58-0.9 2.2-4.38 4.41-8.76 6.56-13.17 0.34-0.68 0.77-0.94 1.47-0.92 0.91 0.01 1.82-0.01 2.73 0 0.99 0.01 1.16 0.23 0.74 1.15-0.99 2.15-2.03 4.28-3.04 6.42q-3.43 7.26-6.85 14.53c-0.19 0.41-0.41 0.58-0.87 0.56q-1.28-0.05-2.57 0c-0.43 0.02-0.66-0.14-0.83-0.54-1.23-2.76-2.32-5.58-3.46-8.37q-0.87-2.15-1.74-4.29c-0.07-0.16-0.07-0.38-0.3-0.45-0.19 0.16-0.11 0.38-0.11 0.57q-0.02 5.84-0.04 11.69-0.03 1.68-0.06 3.37c0 0.28-0.01 0.49-0.4 0.46-1.39-0.09-2.79-0.01-4.18-0.11-0.42-0.04-0.54-0.16-0.54-0.57q0.02-4.61 0.01-9.22-0.02-2.81-0.06-5.69z"/>
	<path class="s0" d="m73.31 8.26q1.55 2.5 3.09 4.94c1.03 1.64 1.04 3.22-0.05 4.89-2.12 3.24-4.15 6.54-6.21 9.83-0.23 0.37-0.49 0.5-0.93 0.52-1.78 0.11-3.56 0.05-5.33-0.02-0.64-0.02-0.69-0.11-0.35-0.66 1.87-3.09 3.89-6.08 5.84-9.11 0.47-0.74 0.89-1.5 1.37-2.23 0.36-0.55 0.35-1.01-0.01-1.56-1.11-1.69-2.17-3.4-3.25-5.1q-1.49-2.33-2.98-4.67-0.32-0.54-0.6-1.1c-0.15-0.29-0.06-0.5 0.27-0.56q0.32-0.06 0.65-0.07 2.09 0 4.18 0c0.73 0 1.3 0.22 1.73 0.89 0.85 1.33 1.74 2.63 2.58 4.01z"/>
	<path class="s0" d="m57.71 12.19c0.13 5.27 0.14 10.5 0.14 15.72 0 0.38-0.11 0.53-0.51 0.53q-2.04-0.03-4.08-0.01c-0.39 0.01-0.53-0.11-0.53-0.51 0.02-2.96 0.06-5.91 0.01-8.87-0.05-2.24 1.01-3.98 2.25-5.68 0.58-0.8 1.22-1.56 1.98-2.21 0.15-0.12 0.3-0.32 0.52-0.22 0.2 0.1 0.14 0.32 0.15 0.5q0.04 0.34 0.07 0.75z"/>
	<path class="s0" d="m84.06 23.42q1.4 2.26 2.76 4.49c0.33 0.54 0.24 0.74-0.41 0.81-1.85 0.21-3.72 0.13-5.58 0.06-0.48-0.02-0.84-0.26-1.14-0.65-0.58-0.76-1.15-1.53-1.45-2.45-0.04-0.13-0.12-0.19-0.21-0.27-0.73-0.69-1.18-1.54-1.45-2.49-0.15-0.56-0.07-1.09 0.35-1.55 0.59-0.64 0.97-1.44 1.47-2.16 0.37-0.52 0.75-1.03 1.29-1.4 0.46-0.32 0.77-0.27 1.02 0.24 0.95 1.88 2.27 3.53 3.35 5.37z"/>
	<path class="s0" d="m83.42 3.25c0.77 0.02 1.49-0.02 2.21 0.1 0.63 0.1 0.81 0.4 0.47 0.96q-1.14 1.84-2.32 3.65c-0.93 1.42-1.87 2.83-2.74 4.29q-0.16 0.26-0.34 0.5c-0.43 0.59-0.82 0.67-1.32 0.14-1.02-1.08-1.94-2.23-2.59-3.58-0.41-0.85-0.31-1.63 0.28-2.4 0.68-0.89 1.3-1.83 1.94-2.75 0.45-0.64 1.03-0.96 1.84-0.91 0.83 0.04 1.68 0 2.57 0z"/>
</svg>